<?xml version="1.0" encoding="UTF-8"?>
<svg id="Calque_1" data-name="Calque 1" xmlns="http://www.w3.org/2000/svg" xmlns:xlink="http://www.w3.org/1999/xlink" version="1.1" viewBox="0 0 50 50">
  <defs>
    <style>
      .cls-1 {
        fill: #03a9f5;
      }

      .cls-1, .cls-2 {
        stroke-width: 0px;
      }

      .cls-3 {
        clip-path: url(#clippath);
      }

      .cls-2 {
        fill: none;
      }
    </style>
    <clipPath id="clippath">
      <rect class="cls-2" y="0" width="50" height="50"/>
    </clipPath>
  </defs>
  <g class="cls-3">
    <g>
      <path class="cls-1" d="M21.9,31.8c0,0-.1,0-.2,0-.5-.1-.8-.6-.7-1.1l2.2-10.8c.1-.5.6-.8,1.1-.7.5.1.8.6.7,1.1l-2.2,10.8c0,.4-.5.7-.9.7Z"/>
      <path class="cls-1" d="M28.1,31.8c-.4,0-.8-.3-.9-.7l-2.2-10.8c-.1-.5.2-1,.7-1.1.5-.1,1,.2,1.1.7l2.2,10.8c.1.5-.2,1-.7,1.1,0,0-.1,0-.2,0Z"/>
      <path class="cls-1" d="M30.6,36.4c-.5,0-.9-.4-.9-.9,0-2.5-2.1-4.6-4.6-4.6s-4.6,2.1-4.6,4.6-.4.9-.9.9-.9-.4-.9-.9c0-3.5,3-6.5,6.5-6.5s6.5,3,6.5,6.5-.4.9-.9.9Z"/>
      <path class="cls-1" d="M25.9,21c-.4,0-.8-.3-.9-.7h0c-.1.5-.6.8-1.1.7-.5-.1-.8-.6-.7-1.1.2-.9.9-1.5,1.8-1.5s1.6.6,1.8,1.5c.1.5-.2,1-.7,1.1,0,0-.1,0-.2,0Z"/>
      <path class="cls-1" d="M30.7,40.1h-11.4c-.5,0-.9-.4-.9-.9s.4-.9.9-.9h11.4c.5,0,.9.4.9.9s-.4.9-.9.9Z"/>
      <path class="cls-1" d="M30.7,44.8h-11.4c-.5,0-.9-.4-.9-.9s.4-.9.9-.9h11.4c.5,0,.9.4.9.9s-.4.9-.9.9Z"/>
      <path class="cls-1" d="M19.3,44.8c-2.1,0-3.2-1.6-3.2-3.2s.3-1.6.8-2.2c.6-.7,1.4-1,2.4-1s.9.4.9.9-.4.9-.9.9-.7.1-1,.4c-.2.2-.3.6-.3,1s0,1.4,1.3,1.4.9.4.9.9-.4.9-.9.9Z"/>
      <path class="cls-1" d="M30.7,44.8c-.5,0-.9-.4-.9-.9s.4-.9.9-.9.7-.1,1-.4c.2-.2.3-.6.3-1s0-1.4-1.3-1.4-.9-.4-.9-.9.4-.9.9-.9c2.1,0,3.2,1.6,3.2,3.2s-.3,1.6-.8,2.2c-.6.7-1.4,1-2.4,1Z"/>
      <path class="cls-1" d="M33.9,36.4h-17.9c-.5,0-.9-.4-.9-.9s.4-.9.9-.9h17.9c.5,0,.9.4.9.9s-.4.9-.9.9Z"/>
      <path class="cls-1" d="M36.6,37.5c-.2,0-.5,0-.7-.3-.5-.5-1.2-.8-2-.8s-.9-.4-.9-.9.4-.9.9-.9c1.2,0,2.4.5,3.3,1.4.4.4.4.9,0,1.3-.2.2-.4.3-.7.3Z"/>
      <path class="cls-1" d="M12.2,31.2c-.4,0-.7-.2-.9-.6-.2-.5,0-1,.5-1.2l1.7-.7c.5-.2,1,0,1.2.5.2.5,0,1-.5,1.2l-1.7.7c-.1,0-.2,0-.4,0Z"/>
      <path class="cls-1" d="M13.9,21.3c-.1,0-.2,0-.4,0l-1.7-.7c-.5-.2-.7-.7-.5-1.2.2-.5.7-.7,1.2-.5l1.7.7c.5.2.7.7.5,1.2-.1.4-.5.6-.9.6Z"/>
      <path class="cls-1" d="M20.4,14.8c-.4,0-.7-.2-.9-.6l-.7-1.7c-.2-.5,0-1,.5-1.2.5-.2,1,0,1.2.5l.7,1.7c.2.5,0,1-.5,1.2-.1,0-.2,0-.4,0Z"/>
      <path class="cls-1" d="M29.6,14.8c-.1,0-.2,0-.4,0-.5-.2-.7-.7-.5-1.2l.7-1.7c.2-.5.7-.7,1.2-.5.5.2.7.7.5,1.2l-.7,1.7c-.1.4-.5.6-.9.6Z"/>
      <path class="cls-1" d="M37.8,31.2c-.1,0-.2,0-.4,0l-1.7-.7c-.5-.2-.7-.7-.5-1.2.2-.5.7-.7,1.2-.5l1.7.7c.5.2.7.7.5,1.2-.1.4-.5.6-.9.6Z"/>
      <path class="cls-1" d="M36.1,21.3c-.4,0-.7-.2-.9-.6-.2-.5,0-1,.5-1.2l1.7-.7c.5-.2,1,0,1.2.5.2.5,0,1-.5,1.2l-1.7.7c-.1,0-.2,0-.4,0Z"/>
      <path class="cls-1" d="M33.5,17.4c-.2,0-.5,0-.7-.3-.4-.4-.4-.9,0-1.3l2-2c.4-.4.9-.4,1.3,0,.4.4.4.9,0,1.3l-2,2c-.2.2-.4.3-.7.3Z"/>
      <path class="cls-1" d="M16.5,17.4c-.2,0-.5,0-.7-.3l-2-2c-.4-.4-.4-.9,0-1.3.4-.4.9-.4,1.3,0l2,2c.4.4.4.9,0,1.3-.2.2-.4.3-.7.3Z"/>
      <path class="cls-1" d="M39.8,25.9h-2.8c-.5,0-.9-.4-.9-.9s.4-.9.9-.9h2.8c.5,0,.9.4.9.9s-.4.9-.9.9Z"/>
      <path class="cls-1" d="M13,25.9h-2.8c-.5,0-.9-.4-.9-.9s.4-.9.9-.9h2.8c.5,0,.9.4.9.9s-.4.9-.9.9Z"/>
      <path class="cls-1" d="M25,13.9c-.5,0-.9-.4-.9-.9v-2.8c0-.5.4-.9.9-.9s.9.4.9.9v2.8c0,.5-.4.9-.9.9Z"/>
      <path class="cls-1" d="M13.4,37.5c-.2,0-.5,0-.7-.3-.4-.4-.4-.9,0-1.3.9-.9,2-1.4,3.3-1.4s.9.4.9.9-.4.9-.9.9c-.7,0-1.4.3-2,.8-.2.2-.4.3-.7.3Z"/>
      <path class="cls-1" d="M8,43c-.2,0-.5,0-.7-.3-.4-.4-.4-.9,0-1.3l5.5-5.5c.4-.4.9-.4,1.3,0,.4.4.4.9,0,1.3l-5.5,5.5c-.2.2-.4.3-.7.3Z"/>
      <path class="cls-1" d="M42,43c-.2,0-.5,0-.7-.3l-5.5-5.5c-.4-.4-.4-.9,0-1.3.4-.4.9-.4,1.3,0l5.5,5.5c.4.4.4.9,0,1.3-.2.2-.4.3-.7.3Z"/>
      <path class="cls-1" d="M11.9,39c-.2,0-.5,0-.7-.3-4.4-4.4-6.5-10.8-5.4-17,1-6.2,5.2-11.7,10.9-14.4,8.4-4,18.9-1.2,24.2,6.4,5.3,7.6,4.4,18.3-2.2,24.9-.4.4-.9.4-1.3,0-.4-.4-.4-.9,0-1.3,6-6,6.8-15.7,2-22.6-4.9-6.9-14.3-9.4-21.9-5.8-5.1,2.4-8.9,7.4-9.8,13-.9,5.6.9,11.3,4.9,15.3.4.4.4.9,0,1.3-.2.2-.4.3-.7.3Z"/>
      <path class="cls-1" d="M25.1,50c-5.1,0-10.2-1.6-14.4-4.5C3.6,40.5-.5,32.1,0,23.4.6,14.8,5.7,7,13.3,2.9,16.8,1,20.9,0,25,0s9.2,1.3,13.1,3.7c7.4,4.5,11.9,12.7,11.9,21.3s0,2.1-.2,3.2c-1.1,8.5-6.6,16-14.4,19.6-3.2,1.5-6.8,2.2-10.3,2.2ZM25,1.9c-3.8,0-7.6.9-10.8,2.7C7.1,8.3,2.4,15.6,1.9,23.5c-.5,8,3.3,15.9,9.8,20.5,3.8,2.7,8.5,4.1,13.3,4.1s6.6-.7,9.6-2.1c7.2-3.3,12.4-10.3,13.4-18.1.1-1,.2-2,.2-3,0-8-4.2-15.6-11.1-19.8-3.6-2.2-7.8-3.4-12.1-3.4Z"/>
    </g>
  </g>
</svg>