<svg width="30" height="40" viewBox="0 0 30 40" fill="none" xmlns="http://www.w3.org/2000/svg">
<path d="M22.3185 14.1384C22.3185 10.1351 19.0633 6.86572 15.0108 6.86572C10.9584 6.86572 7.70312 10.1351 7.70312 14.1384C7.70312 18.1418 11.0248 21.4112 15.0773 21.4112C19.0633 21.4112 22.3185 18.1418 22.3185 14.1384ZM9.76257 14.1384C9.76257 11.2027 12.1542 8.86739 15.0773 8.86739C18.0003 8.86739 20.3919 11.2027 20.3919 14.1384C20.3919 17.0742 18.0003 19.4095 15.0773 19.4095C12.1542 19.4095 9.76257 17.0742 9.76257 14.1384Z" fill="#313131"/>
<path d="M15.0099 40C15.3925 40 15.6986 39.851 15.9282 39.5531C16.4638 38.8827 29.6253 26.6667 29.6253 14.0782C29.5488 6.33147 23.0446 0 15.0099 0C6.97528 0 0.394531 6.33147 0.394531 14.0782C0.394531 26.6667 13.556 38.8827 14.0917 39.5531C14.3212 39.851 14.6273 40 15.0099 40ZM15.0099 2.23464C21.8202 2.23464 27.3297 7.52328 27.3297 14.0782C27.3297 24.0596 18.2238 34.8603 15.0099 37.0205C12.4082 35.1583 2.69014 24.0596 2.69014 14.0782C2.69014 7.52328 8.19961 2.23464 15.0099 2.23464Z" fill="#313131"/>
</svg>
