<?xml version="1.0" encoding="utf-8"?>
<!-- Generator: Adobe Illustrator 26.0.3, SVG Export Plug-In . SVG Version: 6.00 Build 0)  -->
<svg version="1.1" id="Calque_1" xmlns="http://www.w3.org/2000/svg" xmlns:xlink="http://www.w3.org/1999/xlink" x="0px" y="0px"
	 viewBox="0 0 310 150" style="enable-background:new 0 0 310 150;" xml:space="preserve">
<path d="M81.7,26.4c-0.5-0.9-1.5-1.5-2.6-1.5l-33.5,1.5c-0.7,0.1-1.4,0.4-1.9,0.9L25.5,46.9c-0.8,0.7-1,1.8-0.6,2.8
	c0.4,1,1.3,1.7,2.3,1.8c2.5,0.2,10.3,0.9,18.1,0.9c6.7,0,13.3-0.5,16.4-2.3c0.2,0,0.3-0.1,0.4-0.2c5-4,18.6-19.8,19.2-20.5
	C82,28.6,82.2,27.4,81.7,26.4z M58.9,45.4c-3.6,1.8-15.8,1.6-25.5,1l13.5-14.6l26-1.2C68.2,36,61.8,43,58.9,45.4z M301.5,71.2
	c-0.7-1.7-2.5-4.5-5.9-9.7l-0.8-1.2l-1.2-1.9c-0.8-1.5-2.2-2.7-5.1-5.1l-0.7-0.5c-1.3-1.1-3-2.5-22.3-6.2
	c-9.6-1.9-19.6-3.5-22.9-3.8c-5.2-0.6-14.6-0.9-18.5-1c-7.6-5.4-42.9-29.6-64.9-31.2c-6.9-0.5-18.6-0.8-34.9-0.8
	c-22.1,0-46.5,0.6-56.9,0.8c-2.4,0.1-4.3,0.1-4.6,0.1c-2.4,0-13.8,1.3-19.4,2c-3.2,0.4-7.8,1-11.5,1.5c-1.7,0.2-3,0.5-3.9,0.6
	c-0.6,0.1-1.1,0.2-1.5,0.3c-2.1,0.6-3.3,1.8-4,3.2c-2.1,4.6,2.2,9.3,2.3,9.3c0.1,0.1,0.3,0.3,0.4,0.4c-4.3,3.7-9.1,7.9-11.4,11.1
	c-0.1,0.1-0.1,0.2-0.2,0.2c-2.5,3.8-3.6,10.8-4.7,20.8c0,0.3-0.1,0.6-0.1,0.9c-0.9,1-2.1,2.7-2.4,5.3c0,0.1,0,0.1,0,0.2
	c-0.6,5.8-0.2,18.2-0.1,21.2c-0.1,1.1,0,2.6,0.3,4.8c0.1,0.6,0.5,3.4,0.9,4.7c0,0.2,0.1,0.3,0.2,0.5c0.1,0.2,0.2,0.6,0.3,1.1
	c1.5,5,2.4,7.4,4.5,8.8c1.1,0.8,1.9,1.3,23.5,6c0.4,0.1,0.8,0.1,1.1,0.1c1.4,14.5,13.6,25.8,28.4,25.8c14.9,0,27.2-11.5,28.4-26.1
	h1.2c3.6,0.3,15.5,0.7,62.1,1.4c30.1,0.5,60.4,0.9,60.7,0.9c0,0,0.2,0,0.3,0c2,13.8,13.9,24.5,28.2,24.5c14.1,0,25.9-10.3,28.1-23.8
	c2.3-0.1,7.5-0.7,12.2-2.4h0.1c4.8-1.8,7.3-4.2,9.4-6.2c0.3-0.3,0.7-0.7,1.1-1c4.7-4.4,6.6-18.1,6.6-20.1S303.5,75.6,301.5,71.2z
	 M65.4,133c-12.3,0-22.3-10-22.3-22.3c0-12.3,10-22.3,22.3-22.3s22.3,10,22.3,22.3C87.8,123,77.8,133,65.4,133z M293.4,102.7
	c-2.6,2.4-4.1,4.4-8.6,6.1c-3.7,1.3-7.8,1.8-9.9,1.9c-0.5-15.3-13.1-27.5-28.5-27.5c-15.2,0-27.6,11.9-28.5,26.9
	c-2,0-103.4-1.3-124.1-2.1c-0.7-6.6-3.5-12.6-8.3-17.3c-5.4-5.3-12.4-8.2-19.9-8.2c-0.1,0-0.1,0-0.2,0c-14.7,0-26.9,11.2-28.4,25.6
	c-1.1-0.2-20.4-4.4-21.3-5.1c-1-0.7-2.6-6.8-2.9-7.5c-0.3-1-1.3-6.8-1-7.5c0,0-0.6-14.9,0-21c0.3-2.4,1.9-2.7,2.2-3.7
	s1.3-16.6,4.1-21c2-2.8,7.1-7.2,10.6-10.2c2.4-2.1,2.6-6,0.2-8.2c-0.2-0.2-0.3-0.3-0.3-0.3c-0.3-0.3-1.6-2.4-1.3-3.1
	c0-0.7,31.9-4.4,35.1-4.4c2.2,0.3,34-0.7,61.8-0.7c13.9,0,26.8,0.2,34.5,0.9c23,1.7,63.5,31.2,63.5,31.2s13.4,0.3,19.8,1
	s39.2,6.4,42.1,8.8c2.9,2.4,4.1,3.4,4.5,4.1l1.3,2.1c2,3,5.6,8.4,6.3,10.1c1.3,2.7,1.9,10.2,1.9,13.2
	C298.2,89.5,296,100.4,293.4,102.7z M129.7,25.3c-0.1-1-0.8-1.9-1.8-2.2c-0.3-0.1-0.7-0.1-1.1-0.1c-1.7,0.1-22.1,0.1-35.5,0.1
	c-2.3,0-4.4,1.1-5.5,2.8l-0.3,0.5c-4.3,6.3-9,13.5-9,17.9c0,6.2,3.9,9.2,7.6,10c2.9,0.7,39.5,1.8,46.9,2c0.8,0,1.5-0.3,1.8-1
	c0.6-0.6,0.8-1.4,0.7-2.2L129.7,25.3z M85.1,48.9c-1.4-0.3-3.2-1.4-3.2-4.6c0-3,6.1-11.9,8.1-14.8l0.4-0.5c0.1,0,0.1-0.1,0.1-0.1
	c0.1-0.1,0.5-0.3,0.9-0.3c0,0,9,0,17.9,0c4.5,0,8.9,0,12.3,0c1.3,0,2.3,0,3.2,0l2.9,22C111.1,50.1,87.2,49.3,85.1,48.9z M208.6,46.6
	c-5.5-4.2-31.6-21.3-50.3-23c-23.5-1.8-24,0-24.6,1.8c-0.2,0.7-0.2,1.4,0.1,2l7.2,27.4c0.3,1.1,1.4,2,2.6,2l67.4,1.9
	c1.2,0,2.2-0.7,2.6-1.7C214.4,55,214.1,50.5,208.6,46.6z M145.8,51.4l-6.1-23c2.9-0.1,8.5-0.1,18.1,0.6
	c16.1,1.4,40.4,16.5,47.5,21.9c1.2,0.8,1.9,1.6,2.4,2.2L145.8,51.4z M269,111.8c0,12.3-10,22.3-22.3,22.3c-12.3,0-22.3-10-22.3-22.3
	c0-12.3,10-22.3,22.3-22.3C259,89.5,269,99.5,269,111.8z"/>
</svg>
